# xmcd
#
# Track frame offsets: 
#        150
#        10957
#        21643
#        29055
#        43664
#        54911
#        63182
#        79136
#        93548
#        106894
#        116046
#        128152
#        136599
#        144582
#        155185
#        164436
#        182852
#        192129
#        201885
#        211342
#        219058
#        229273
#        243776
#        251330
#        264910
#        273301
#        287074
#
# Disc length: 3932 seconds
#
# Revision: 0
# Processed by: cddbd v1.5.2PL0 Copyright (c) Steve Scherf et al.
# Submitted via: ExactAudioCopy v0.99pb4
#
DISCID=850f5a1b
DTITLE=Gospelchor Wolfsburg - There Is Glory In My Soul
DYEAR=2009
DGENRE=
TTITLE0=Jesus, Remember Me (Einmarsch)
TTITLE1=There Is Glory In My Soul
TTITLE2=Certainly Lord
TTITLE3=Sing, Praise And Shout
TTITLE4=As I Go
TTITLE5=Climbing Up The Mountain
TTITLE6=Nobody Knows De Trouble
TTITLE7=O Freedom
TTITLE8=Swine Low
TTITLE9=Poor Man Lazarus
TTITLE10=Sometimes I Feel Like A Motherless Child
TTITLE11=I Can Tell The World
TTITLE12=I Paradisi
TTITLE13=You Are The Light
TTITLE14=Besin Street Blues
TTITLE15=Banana Boat Song
TTITLE16=Singa
TTITLE17=Siyahamba
TTITLE18=Just Let Me Say
TTITLE19=Stan' Still Jordan
TTITLE20=Battle Of Jericho
TTITLE21=Amazing Grace
TTITLE22=Give Thanks
TTITLE23=All Night, All Day
TTITLE24=Heaven Is A Wonderful Place
TTITLE25=Old Time Religion
TTITLE26=Mashiti (Ausmarsch)
EXTD=
EXTT0=
EXTT1=
EXTT2=
EXTT3=
EXTT4=
EXTT5=
EXTT6=
EXTT7=
EXTT8=
EXTT9=
EXTT10=
EXTT11=
EXTT12=
EXTT13=
EXTT14=
EXTT15=
EXTT16=
EXTT17=
EXTT18=
EXTT19=
EXTT20=
EXTT21=
EXTT22=
EXTT23=
EXTT24=
EXTT25=
EXTT26=
PLAYORDER=
